<svg xmlns="http://www.w3.org/2000/svg" width="900" height="900" viewBox="0 0 900 900" version="1.1"><path d="M 398.012 410.250 C 398.045 419.448, 404.322 433.068, 412.208 441.054 C 424.460 453.461, 444.439 459.027, 460.068 454.388 C 466.761 452.401, 477 447.320, 477 445.986 C 477 445.444, 477.618 445, 478.373 445 C 480.034 445, 486.901 437.701, 490.290 432.332 C 493.639 427.028, 498 414.645, 498 410.440 L 498 407 448 407 L 398 407 398.012 410.250" stroke="none" fill="#fefefe" fill-rule="evenodd"/><path d="M 452.710 37.750 C 452.392 41.462, 452.501 46.300, 452.951 48.500 C 453.590 51.621, 453.795 50.139, 453.885 41.750 C 453.948 35.837, 453.840 31, 453.644 31 C 453.448 31, 453.027 34.038, 452.710 37.750 M 441.839 48.750 C 441.652 51.913, 441.752 58.550, 442.061 63.500 C 442.565 71.591, 442.641 71.010, 442.811 57.750 C 443.001 42.933, 442.471 38.025, 441.839 48.750 M 400 89.566 C 400 91.139, 402.243 94, 403.476 94 C 405.823 94, 406.422 91.781, 404.462 90.348 C 402.595 88.983, 400 88.528, 400 89.566 M 861.555 97.828 C 860.655 100.663, 861.938 102.863, 863.188 100.628 C 863.740 99.643, 863.732 98.343, 863.169 97.337 C 862.344 95.863, 862.161 95.919, 861.555 97.828 M 623.023 331.587 C 626.035 333.560, 629.429 336.035, 630.564 337.087 C 631.700 338.139, 632.998 339, 633.450 339 C 634.465 339, 627.790 333.038, 626.750 333.016 C 626.337 333.007, 626 332.373, 626 331.607 C 626 330.044, 623.306 328.693, 621.910 329.556 C 621.409 329.865, 621 329.641, 621 329.059 C 621 328.477, 620.223 328, 619.273 328 C 618.323 328, 620.010 329.614, 623.023 331.587 M 811 375 C 811 377.325, 812.263 377.593, 813.903 375.617 C 814.792 374.546, 814.688 374.094, 813.444 373.617 C 811.121 372.725, 811 372.794, 811 375 M 240.653 410.015 C 240.930 411.398, 240.241 414.852, 239.123 417.689 C 238.004 420.527, 236.784 425.245, 236.411 428.174 C 236.037 431.103, 235.296 434.345, 234.762 435.378 C 234.229 436.411, 233.426 439.561, 232.977 442.378 C 232.029 448.333, 223.583 483.387, 221.502 490 C 220.723 492.475, 219.780 496.300, 219.406 498.500 C 219.032 500.700, 217.958 504.300, 217.019 506.500 C 214.497 512.410, 211.982 523.823, 211.992 529.312 C 211.996 531.958, 210.929 538.033, 209.621 542.812 C 208.312 547.590, 205.795 558.025, 204.029 566 C 200.408 582.342, 194.522 607.468, 192.901 613.500 C 192.310 615.700, 191.455 619.975, 191.001 623 C 190.282 627.793, 186.810 642.143, 182.411 658.500 C 178.891 671.588, 173.403 694.434, 171.960 702 C 171.384 705.025, 169.611 712.900, 168.020 719.500 C 164.117 735.699, 160.843 749.739, 157.061 766.500 C 155.324 774.200, 153.423 781.850, 152.837 783.500 C 152.251 785.150, 151.560 787.850, 151.302 789.500 C 151.043 791.150, 150.195 793.918, 149.416 795.651 C 148.637 797.384, 147.998 799.634, 147.996 800.651 C 147.993 801.668, 146.883 805.650, 145.529 809.500 C 144.174 813.350, 142.568 820.984, 141.959 826.465 C 141.350 831.946, 140.639 836.776, 140.377 837.198 C 140.116 837.621, 139.297 840.787, 138.558 844.233 C 137.818 847.680, 136.295 853.875, 135.173 858 C 132.808 866.698, 129.186 883.211, 128.013 890.646 C 127.566 893.477, 126.900 896.739, 126.533 897.896 L 125.865 900 448 900 C 754.339 900, 770.108 899.914, 769.582 898.250 C 769.277 897.288, 768.612 894.475, 768.103 892 C 767.593 889.525, 766.452 884.350, 765.567 880.500 C 764.682 876.650, 763.571 871.700, 763.097 869.500 C 762.624 867.300, 761.317 861.900, 760.193 857.500 C 759.069 853.100, 757.406 846.125, 756.497 842 C 755.587 837.875, 754.227 832.250, 753.473 829.500 C 752.719 826.750, 750.696 818.200, 748.978 810.500 C 747.261 802.800, 745.018 793.350, 743.994 789.500 C 741.124 778.709, 737.951 765.224, 736.465 757.500 C 735.724 753.650, 734.363 748.025, 733.442 745 C 732.521 741.975, 731.406 737.250, 730.966 734.500 C 730.526 731.750, 729.012 725.225, 727.603 720 C 726.193 714.775, 725.031 708.749, 725.020 706.608 C 725.009 704.467, 724.148 699.742, 723.106 696.108 C 718.669 680.626, 711.736 653.007, 710.026 644 C 709.556 641.525, 708.683 638.233, 708.086 636.685 C 707.489 635.137, 707.006 632.887, 707.013 631.685 C 707.020 630.483, 705.912 625.675, 704.552 621 C 703.192 616.325, 701.181 608, 700.084 602.500 C 698.132 592.714, 696.357 585.161, 691.507 566 C 690.184 560.775, 687.695 550.200, 685.975 542.500 C 684.255 534.800, 681.256 522.200, 679.312 514.500 C 675.542 499.572, 673.369 490.152, 669.608 472.428 C 668.315 466.338, 666.797 459.813, 666.233 457.928 C 665.180 454.406, 661.838 441.131, 659.329 430.500 C 657.904 424.463, 656.022 412.992, 655.926 409.762 C 655.877 408.129, 651.119 408.008, 576.937 407.762 L 498 407.500 498 410.690 C 498 414.683, 493.555 427.161, 490.290 432.332 C 486.901 437.701, 480.034 445, 478.373 445 C 477.618 445, 477 445.444, 477 445.986 C 477 447.320, 466.761 452.401, 460.068 454.388 C 444.439 459.027, 424.460 453.461, 412.208 441.054 C 404.419 433.166, 398.047 419.452, 398.012 410.500 L 398 407.500 319.075 407.500 L 240.150 407.500 240.653 410.015 M 207.496 520.007 C 206.736 521.236, 209.488 522.434, 210.968 521.520 C 211.554 521.158, 211.774 520.443, 211.457 519.931 C 210.694 518.696, 208.277 518.742, 207.496 520.007" stroke="none" fill="#fcd74f" fill-rule="evenodd"/><path d="M 444.117 82.110 L 443.998 164.220 441.749 166.541 C 440.512 167.817, 438.335 172.380, 436.910 176.681 L 434.321 184.500 427.452 184.800 C 423.674 184.966, 420.002 185.583, 419.292 186.173 C 418.372 186.936, 417.998 190.598, 417.992 198.872 C 417.988 205.268, 417.520 213.425, 416.953 217 C 414.681 231.305, 408.338 247.118, 399.578 260.317 C 392.268 271.330, 375.090 286.340, 362.410 292.796 C 358.225 294.926, 331.101 306.814, 323 310.069 C 301.806 318.583, 274.607 331.216, 269.778 334.789 C 258.216 343.342, 250.225 353.579, 245.638 365.710 C 241.757 375.978, 241.051 380.343, 241.024 394.252 L 241 407.005 447.750 406.752 L 654.500 406.500 654.401 393.500 C 654.284 378.187, 652.760 371.339, 646.728 359 C 643.506 352.411, 640.872 348.814, 635.010 343 C 630.852 338.875, 624.903 334.001, 621.791 332.168 C 618.679 330.336, 599.341 321.685, 578.817 312.943 C 558.293 304.202, 538.146 295.351, 534.046 293.275 C 512.589 282.408, 495.403 264.011, 485.681 241.500 C 479.837 227.968, 477.128 213.840, 477.044 196.450 C 477.016 190.800, 476.549 186.949, 475.800 186.200 C 475.123 185.523, 471.880 185, 468.359 185 C 464.458 185, 461.819 184.531, 461.321 183.750 C 460.883 183.063, 459.495 179.366, 458.235 175.535 C 456.976 171.705, 455.064 167.633, 453.987 166.486 C 452.077 164.453, 452.026 162.373, 451.929 82.201 L 451.829 0 448.033 0 L 444.236 0 444.117 82.110" stroke="none" fill="#060604" fill-rule="evenodd"/><path d="M 0 450 L 0 900 62.953 900 L 125.906 900 126.947 896.250 C 127.520 894.188, 127.991 891.622, 127.994 890.548 C 128.001 888.412, 130.737 876.102, 134.673 860.500 C 136.061 855, 137.806 847.680, 138.550 844.233 C 139.294 840.787, 140.116 837.621, 140.377 837.198 C 140.639 836.776, 141.350 831.946, 141.959 826.465 C 142.568 820.984, 144.174 813.350, 145.529 809.500 C 146.883 805.650, 147.993 801.668, 147.996 800.651 C 147.998 799.634, 148.637 797.384, 149.416 795.651 C 150.195 793.918, 151.043 791.150, 151.302 789.500 C 151.560 787.850, 152.251 785.150, 152.837 783.500 C 153.423 781.850, 155.324 774.200, 157.061 766.500 C 160.843 749.739, 164.117 735.699, 168.020 719.500 C 169.611 712.900, 171.384 705.025, 171.960 702 C 173.403 694.434, 178.891 671.588, 182.411 658.500 C 186.810 642.143, 190.282 627.793, 191.001 623 C 191.455 619.975, 192.310 615.700, 192.901 613.500 C 194.522 607.468, 200.408 582.342, 204.029 566 C 205.795 558.025, 208.312 547.590, 209.621 542.812 C 210.929 538.033, 211.996 531.958, 211.992 529.312 C 211.982 523.823, 214.497 512.410, 217.019 506.500 C 217.958 504.300, 219.032 500.700, 219.406 498.500 C 219.780 496.300, 220.723 492.475, 221.502 490 C 223.583 483.387, 232.029 448.333, 232.977 442.378 C 233.426 439.561, 234.229 436.411, 234.762 435.378 C 235.296 434.345, 236.037 431.103, 236.411 428.174 C 236.784 425.245, 237.916 420.745, 238.927 418.174 C 240.406 414.411, 240.795 410.403, 240.921 397.619 C 241.096 379.859, 241.921 374.728, 246.240 364.539 C 247.881 360.667, 249.270 356.746, 249.326 355.823 C 249.383 354.901, 249.711 354.321, 250.055 354.534 C 251.061 355.156, 255.154 349.058, 254.471 347.954 C 254.130 347.402, 254.251 347.074, 254.740 347.225 C 256.239 347.689, 262.190 341.116, 261.411 339.857 C 260.953 339.115, 261.127 338.961, 261.889 339.432 C 263.386 340.356, 266.208 338.145, 265.334 336.732 C 264.981 336.160, 265.135 335.966, 265.678 336.301 C 267.107 337.184, 274.188 332.113, 273.371 330.792 C 272.977 330.154, 273.147 329.973, 273.777 330.362 C 275.244 331.269, 282.074 327.928, 281.303 326.681 C 280.951 326.112, 281.203 326.007, 281.894 326.435 C 283.529 327.445, 303.173 319.089, 302.338 317.739 C 301.947 317.106, 302.177 316.991, 302.918 317.449 C 304.334 318.324, 319.206 312.143, 318.486 310.978 C 317.937 310.089, 321.026 308.693, 321.810 309.476 C 322.098 309.764, 321.733 310, 321 310 C 320.267 310, 319.922 310.255, 320.234 310.567 C 321.087 311.420, 338.011 303.826, 337.413 302.859 C 337.129 302.399, 337.513 302.260, 338.267 302.549 C 339.956 303.197, 350.232 298.565, 349.261 297.594 C 348.876 297.209, 349.409 297.220, 350.445 297.617 C 351.746 298.117, 352.107 297.982, 351.612 297.181 C 351.156 296.443, 351.420 296.224, 352.342 296.578 C 353.714 297.104, 368 290.581, 368 289.428 C 368 289.128, 367.480 289.203, 366.845 289.595 C 366.124 290.041, 365.963 289.869, 366.415 289.138 C 366.813 288.494, 367.553 288.224, 368.061 288.538 C 369.708 289.556, 383.427 279.500, 382.480 277.968 C 382.228 277.560, 382.805 276.613, 383.761 275.863 C 385.369 274.603, 385.387 274.647, 384 276.453 C 382.512 278.391, 382.522 278.391, 385.219 276.453 C 387.828 274.579, 389.224 272.125, 386.845 273.595 C 386.124 274.041, 385.963 273.869, 386.415 273.138 C 386.813 272.494, 387.523 272.205, 387.994 272.496 C 390.059 273.772, 403.758 256.035, 402.402 253.841 C 401.930 253.077, 402.136 252.966, 403.015 253.510 C 403.985 254.109, 404.164 253.868, 403.681 252.612 C 403.238 251.456, 403.401 251.130, 404.181 251.612 C 404.962 252.095, 405.125 251.769, 404.681 250.612 C 404.306 249.635, 404.430 249.148, 404.969 249.481 C 406.230 250.260, 409.297 244.217, 408.584 242.358 C 408.275 241.554, 408.420 241.142, 408.905 241.442 C 410.216 242.252, 412.963 234.633, 412.353 231.879 C 411.998 230.276, 412.125 229.918, 412.742 230.782 C 414.581 233.357, 417.273 218.188, 417.761 202.500 C 418.018 194.250, 418.681 186.938, 419.236 186.250 C 419.867 185.468, 422.830 185, 427.147 185 C 433.740 185, 434.099 184.877, 435.164 182.250 C 435.777 180.737, 436.306 178.067, 436.340 176.315 C 436.373 174.563, 436.716 173.325, 437.103 173.563 C 437.489 173.802, 438.255 172.706, 438.805 171.128 C 439.356 169.550, 440.707 167.413, 441.808 166.379 C 443.763 164.544, 443.815 163.081, 444.029 103.500 C 444.149 69.950, 444.192 32.938, 444.124 21.250 L 444 0 222 0 L 0 0 0 450 M 451.918 19.250 C 451.872 29.838, 451.905 66.850, 451.989 101.500 C 452.136 161.828, 452.223 164.586, 454.036 166.527 C 455.078 167.642, 456.695 170.924, 457.631 173.819 C 458.799 177.438, 459.601 178.680, 460.196 177.792 C 460.723 177.004, 460.810 177.579, 460.419 179.263 C 459.406 183.619, 461.333 185, 468.422 185 C 471.894 185, 475.126 185.526, 475.800 186.200 C 476.549 186.949, 477.016 190.800, 477.044 196.450 C 477.102 208.493, 479.597 227.367, 481.015 226.491 C 481.454 226.219, 481.599 226.817, 481.337 227.818 C 480.888 229.535, 487.636 248, 488.712 248 C 488.988 248, 488.946 247.302, 488.618 246.448 C 488.264 245.525, 488.440 245.154, 489.052 245.532 C 489.618 245.882, 489.848 246.918, 489.564 247.834 C 488.937 249.849, 490.440 252.498, 492.214 252.505 C 492.921 252.507, 493.504 253.407, 493.509 254.505 C 493.523 257.383, 495.910 261.174, 497.205 260.373 C 497.891 259.949, 498.024 260.151, 497.557 260.909 C 496.636 262.398, 499.856 266.207, 501.288 265.322 C 501.850 264.975, 502.033 265.137, 501.696 265.683 C 500.830 267.085, 503.911 271.173, 505.223 270.362 C 505.847 269.977, 506.023 270.153, 505.638 270.776 C 504.963 271.869, 506.641 273.456, 508.500 273.485 C 509.050 273.493, 509.500 274.115, 509.500 274.867 C 509.500 277.239, 518.248 284.046, 520.496 283.424 C 521.876 283.042, 522.096 283.150, 521.203 283.773 C 520.158 284.501, 520.198 284.919, 521.409 285.924 C 522.236 286.611, 523.452 286.839, 524.111 286.432 C 524.849 285.975, 525.047 286.115, 524.627 286.795 C 523.781 288.163, 527.619 290.353, 529.175 289.392 C 529.854 288.972, 530.034 289.136, 529.623 289.802 C 528.586 291.479, 545.342 299.322, 548.227 298.509 C 549.752 298.080, 550.066 298.171, 549.183 298.785 C 548.195 299.472, 548.619 300.014, 550.872 300.947 C 552.526 301.632, 554.426 301.855, 555.094 301.442 C 555.820 300.993, 556.051 301.109, 555.667 301.729 C 554.846 303.059, 560.482 305.438, 562.094 304.442 C 562.780 304.018, 563.051 304.109, 562.716 304.650 C 561.928 305.926, 574.567 311.386, 576.107 310.434 C 576.823 309.992, 577.048 310.113, 576.665 310.733 C 575.837 312.072, 586.468 316.447, 588.099 315.439 C 588.820 314.993, 589.050 315.110, 588.668 315.728 C 588.287 316.344, 593.960 319.321, 602.619 323.051 C 617.414 329.424, 625.604 334.080, 632.183 339.856 C 634.182 341.611, 636.010 342.699, 636.245 342.274 C 636.480 341.848, 636.548 342.030, 636.396 342.677 C 636.088 343.986, 638.390 346.277, 639.200 345.467 C 639.483 345.184, 640.342 345.724, 641.107 346.668 C 642.029 347.803, 642.077 348.130, 641.250 347.633 C 639.348 346.490, 639.719 347.483, 643.025 352.382 C 650.979 364.168, 654.267 376.052, 654.401 393.500 L 654.500 406.500 576.500 407.009 L 498.500 407.518 577.188 407.759 C 651.348 407.986, 655.879 408.101, 655.927 409.750 C 656.020 412.982, 657.900 424.446, 659.329 430.500 C 661.838 441.131, 665.180 454.406, 666.233 457.928 C 666.797 459.813, 668.315 466.338, 669.608 472.428 C 673.369 490.152, 675.542 499.572, 679.312 514.500 C 681.256 522.200, 684.255 534.800, 685.975 542.500 C 687.695 550.200, 690.184 560.775, 691.507 566 C 696.357 585.161, 698.132 592.714, 700.084 602.500 C 701.181 608, 703.192 616.325, 704.552 621 C 705.912 625.675, 707.020 630.483, 707.013 631.685 C 707.006 632.887, 707.489 635.137, 708.086 636.685 C 708.683 638.233, 709.556 641.525, 710.026 644 C 711.736 653.007, 718.669 680.626, 723.106 696.108 C 724.148 699.742, 725.009 704.467, 725.020 706.608 C 725.031 708.749, 726.193 714.775, 727.603 720 C 729.012 725.225, 730.526 731.750, 730.966 734.500 C 731.406 737.250, 732.521 741.975, 733.442 745 C 734.363 748.025, 735.724 753.650, 736.465 757.500 C 737.951 765.224, 741.124 778.709, 743.994 789.500 C 745.018 793.350, 747.261 802.800, 748.978 810.500 C 750.696 818.200, 752.719 826.750, 753.473 829.500 C 754.227 832.250, 755.585 837.875, 756.491 842 C 759.140 854.060, 760.127 858.221, 761.472 863 C 762.169 865.475, 763.270 869.975, 763.919 873 C 765.219 879.059, 767.789 890.414, 769.182 896.250 L 770.077 900 835.039 900 L 900 900 900 450 L 900 0 676 0 L 452 0 451.918 19.250 M 452.710 37.750 C 452.392 41.462, 452.501 46.300, 452.951 48.500 C 453.590 51.621, 453.795 50.139, 453.885 41.750 C 453.948 35.837, 453.840 31, 453.644 31 C 453.448 31, 453.027 34.038, 452.710 37.750 M 441.839 48.750 C 441.652 51.913, 441.752 58.550, 442.061 63.500 C 442.565 71.591, 442.641 71.010, 442.811 57.750 C 443.001 42.933, 442.471 38.025, 441.839 48.750 M 400 89.566 C 400 91.139, 402.243 94, 403.476 94 C 405.823 94, 406.422 91.781, 404.462 90.348 C 402.595 88.983, 400 88.528, 400 89.566 M 861.555 97.828 C 860.655 100.663, 861.938 102.863, 863.188 100.628 C 863.740 99.643, 863.732 98.343, 863.169 97.337 C 862.344 95.863, 862.161 95.919, 861.555 97.828 M 623.023 331.587 C 626.035 333.560, 629.429 336.035, 630.564 337.087 C 631.700 338.139, 632.998 339, 633.450 339 C 634.465 339, 627.790 333.038, 626.750 333.016 C 626.337 333.007, 626 332.373, 626 331.607 C 626 330.044, 623.306 328.693, 621.910 329.556 C 621.409 329.865, 621 329.641, 621 329.059 C 621 328.477, 620.223 328, 619.273 328 C 618.323 328, 620.010 329.614, 623.023 331.587 M 811 375 C 811 377.325, 812.263 377.593, 813.903 375.617 C 814.792 374.546, 814.688 374.094, 813.444 373.617 C 811.121 372.725, 811 372.794, 811 375 M 279.750 407.750 C 301.338 407.900, 336.663 407.900, 358.250 407.750 C 379.838 407.599, 362.175 407.476, 319 407.476 C 275.825 407.476, 258.163 407.599, 279.750 407.750 M 207.496 520.007 C 206.736 521.236, 209.488 522.434, 210.968 521.520 C 211.554 521.158, 211.774 520.443, 211.457 519.931 C 210.694 518.696, 208.277 518.742, 207.496 520.007" stroke="none" fill="#fbce37" fill-rule="evenodd"/></svg>