<svg xmlns="http://www.w3.org/2000/svg" width="900" height="900"><path fill="#fefefe" fill-rule="evenodd" d="M398.012 410.25c.033 9.198 6.31 22.818 14.196 30.804 12.252 12.407 32.231 17.973 47.86 13.334 6.693-1.987 16.932-7.068 16.932-8.402 0-.542.618-.986 1.373-.986 1.661 0 8.528-7.299 11.917-12.668 3.349-5.304 7.71-17.687 7.71-21.892V407H398l.012 3.25"/><path fill="#fcd74f" fill-rule="evenodd" d="M452.71 37.75c-.318 3.712-.209 8.55.241 10.75.639 3.121.844 1.639.934-6.75.063-5.913-.045-10.75-.241-10.75s-.617 3.038-.934 6.75m-10.871 11c-.187 3.163-.087 9.8.222 14.75.504 8.091.58 7.51.75-5.75.19-14.817-.34-19.725-.972-9M400 89.566c0 1.573 2.243 4.434 3.476 4.434 2.347 0 2.946-2.219.986-3.652-1.867-1.365-4.462-1.82-4.462-.782m461.555 8.262c-.9 2.835.383 5.035 1.633 2.8.552-.985.544-2.285-.019-3.291-.825-1.474-1.008-1.418-1.614.491M623.023 331.587c3.012 1.973 6.406 4.448 7.541 5.5 1.136 1.052 2.434 1.913 2.886 1.913 1.015 0-5.66-5.962-6.7-5.984-.413-.009-.75-.643-.75-1.409 0-1.563-2.694-2.914-4.09-2.051-.501.309-.91.085-.91-.497s-.777-1.059-1.727-1.059c-.95 0 .737 1.614 3.75 3.587M811 375c0 2.325 1.263 2.593 2.903.617.889-1.071.785-1.523-.459-2-2.323-.892-2.444-.823-2.444 1.383m-570.347 35.015c.277 1.383-.412 4.837-1.53 7.674-1.119 2.838-2.339 7.556-2.712 10.485-.374 2.929-1.115 6.171-1.649 7.204-.533 1.033-1.336 4.183-1.785 7-.948 5.955-9.394 41.009-11.475 47.622-.779 2.475-1.722 6.3-2.096 8.5-.374 2.2-1.448 5.8-2.387 8-2.522 5.91-5.037 17.323-5.027 22.812.004 2.646-1.063 8.721-2.371 13.5-1.309 4.778-3.826 15.213-5.592 23.188-3.621 16.342-9.507 41.468-11.128 47.5-.591 2.2-1.446 6.475-1.9 9.5-.719 4.793-4.191 19.143-8.59 35.5-3.52 13.088-9.008 35.934-10.451 43.5-.576 3.025-2.349 10.9-3.94 17.5a3162.778 3162.778 0 0 0-10.959 47c-1.737 7.7-3.638 15.35-4.224 17-.586 1.65-1.277 4.35-1.535 6-.259 1.65-1.107 4.418-1.886 6.151-.779 1.733-1.418 3.983-1.42 5-.003 1.017-1.113 4.999-2.467 8.849-1.355 3.85-2.961 11.484-3.57 16.965s-1.32 10.311-1.582 10.733c-.261.423-1.08 3.589-1.819 7.035-.74 3.447-2.263 9.642-3.385 13.767-2.365 8.698-5.987 25.211-7.16 32.646-.447 2.831-1.113 6.093-1.48 7.25l-.668 2.104H448c306.339 0 322.108-.086 321.582-1.75-.305-.962-.97-3.775-1.479-6.25-.51-2.475-1.651-7.65-2.536-11.5-.885-3.85-1.996-8.8-2.47-11-.473-2.2-1.78-7.6-2.904-12a582.191 582.191 0 0 1-3.696-15.5c-.91-4.125-2.27-9.75-3.024-12.5s-2.777-11.3-4.495-19c-1.717-7.7-3.96-17.15-4.984-21-2.87-10.791-6.043-24.276-7.529-32-.741-3.85-2.102-9.475-3.023-12.5-.921-3.025-2.036-7.75-2.476-10.5-.44-2.75-1.954-9.275-3.363-14.5-1.41-5.225-2.572-11.251-2.583-13.392-.011-2.141-.872-6.866-1.914-10.5-4.437-15.482-11.37-43.101-13.08-52.108-.47-2.475-1.343-5.767-1.94-7.315s-1.08-3.798-1.073-5c.007-1.202-1.101-6.01-2.461-10.685-1.36-4.675-3.371-13-4.468-18.5-1.952-9.786-3.727-17.339-8.577-36.5-1.323-5.225-3.812-15.8-5.532-23.5-1.72-7.7-4.719-20.3-6.663-28-3.77-14.928-5.943-24.348-9.704-42.072-1.293-6.09-2.811-12.615-3.375-14.5-1.053-3.522-4.395-16.797-6.904-27.428-1.425-6.037-3.307-17.508-3.403-20.738-.049-1.633-4.807-1.754-78.989-2L498 407.5v3.19c0 3.993-4.445 16.471-7.71 21.642-3.389 5.369-10.256 12.668-11.917 12.668-.755 0-1.373.444-1.373.986 0 1.334-10.239 6.415-16.932 8.402-15.629 4.639-35.608-.927-47.86-13.334-7.789-7.888-14.161-21.602-14.196-30.554l-.012-3H240.15l.503 2.515m-33.157 109.992c-.76 1.229 1.992 2.427 3.472 1.513.586-.362.806-1.077.489-1.589-.763-1.235-3.18-1.189-3.961.076"/><path fill="#060604" fill-rule="evenodd" d="m444.117 82.11-.119 82.11-2.249 2.321c-1.237 1.276-3.414 5.839-4.839 10.14l-2.589 7.819-6.869.3c-3.778.166-7.45.783-8.16 1.373-.92.763-1.294 4.425-1.3 12.699-.004 6.396-.472 14.553-1.039 18.128-2.272 14.305-8.615 30.118-17.375 43.317-7.31 11.013-24.488 26.023-37.168 32.479-4.185 2.13-31.309 14.018-39.41 17.273-21.194 8.514-48.393 21.147-53.222 24.72-11.562 8.553-19.553 18.79-24.14 30.921-3.881 10.268-4.587 14.633-4.614 28.542L241 407.005l206.75-.253 206.75-.252-.099-13c-.117-15.313-1.641-22.161-7.673-34.5-3.222-6.589-5.856-10.186-11.718-16-4.158-4.125-10.107-8.999-13.219-10.832-3.112-1.832-22.45-10.483-42.974-19.225-20.524-8.741-40.671-17.592-44.771-19.668-21.457-10.867-38.643-29.264-48.365-51.775-5.844-13.532-8.553-27.66-8.637-45.05-.028-5.65-.495-9.501-1.244-10.25-.677-.677-3.92-1.2-7.441-1.2-3.901 0-6.54-.469-7.038-1.25-.438-.687-1.826-4.384-3.086-8.215-1.259-3.83-3.171-7.902-4.248-9.049-1.91-2.033-1.961-4.113-2.058-84.285L451.829 0h-7.593l-.119 82.11"/><path fill="#fbce37" fill-rule="evenodd" d="M0 450v450h125.906l1.041-3.75c.573-2.062 1.044-4.628 1.047-5.702.007-2.136 2.743-14.446 6.679-30.048 1.388-5.5 3.133-12.82 3.877-16.267.744-3.446 1.566-6.612 1.827-7.035.262-.422.973-5.252 1.582-10.733.609-5.481 2.215-13.115 3.57-16.965 1.354-3.85 2.464-7.832 2.467-8.849.002-1.017.641-3.267 1.42-5 .779-1.733 1.627-4.501 1.886-6.151.258-1.65.949-4.35 1.535-6 .586-1.65 2.487-9.3 4.224-17a3162.778 3162.778 0 0 1 10.959-47c1.591-6.6 3.364-14.475 3.94-17.5 1.443-7.566 6.931-30.412 10.451-43.5 4.399-16.357 7.871-30.707 8.59-35.5.454-3.025 1.309-7.3 1.9-9.5 1.621-6.032 7.507-31.158 11.128-47.5 1.766-7.975 4.283-18.41 5.592-23.188 1.308-4.779 2.375-10.854 2.371-13.5-.01-5.489 2.505-16.902 5.027-22.812.939-2.2 2.013-5.8 2.387-8 .374-2.2 1.317-6.025 2.096-8.5 2.081-6.613 10.527-41.667 11.475-47.622.449-2.817 1.252-5.967 1.785-7 .534-1.033 1.275-4.275 1.649-7.204.373-2.929 1.505-7.429 2.516-10 1.479-3.763 1.868-7.771 1.994-20.555.175-17.76 1-22.891 5.319-33.08 1.641-3.872 3.03-7.793 3.086-8.716.057-.922.385-1.502.729-1.289 1.006.622 5.099-5.476 4.416-6.58-.341-.552-.22-.88.269-.729 1.499.464 7.45-6.109 6.671-7.368-.458-.742-.284-.896.478-.425 1.497.924 4.319-1.287 3.445-2.7-.353-.572-.199-.766.344-.431 1.429.883 8.51-4.188 7.693-5.509-.394-.638-.224-.819.406-.43 1.467.907 8.297-2.434 7.526-3.681-.352-.569-.1-.674.591-.246 1.635 1.01 21.279-7.346 20.444-8.696-.391-.633-.161-.748.58-.29 1.416.875 16.288-5.306 15.568-6.471-.549-.889 2.54-2.285 3.324-1.502.288.288-.077.524-.81.524-.733 0-1.078.255-.766.567.853.853 17.777-6.741 17.179-7.708-.284-.46.1-.599.854-.31 1.689.648 11.965-3.984 10.994-4.955-.385-.385.148-.374 1.184.023 1.301.5 1.662.365 1.167-.436-.456-.738-.192-.957.73-.603 1.372.526 15.658-5.997 15.658-7.15 0-.3-.52-.225-1.155.167-.721.446-.882.274-.43-.457.398-.644 1.138-.914 1.646-.6 1.647 1.018 15.366-9.038 14.419-10.57-.252-.408.325-1.355 1.281-2.105 1.608-1.26 1.626-1.216.239.59-1.488 1.938-1.478 1.938 1.219 0 2.609-1.874 4.005-4.328 1.626-2.858-.721.446-.882.274-.43-.457.398-.644 1.108-.933 1.579-.642 2.065 1.276 15.764-16.461 14.408-18.655-.472-.764-.266-.875.613-.331.97.599 1.149.358.666-.898-.443-1.156-.28-1.482.5-1 .781.483.944.157.5-1-.375-.977-.251-1.464.288-1.131 1.261.779 4.328-5.264 3.615-7.123-.309-.804-.164-1.216.321-.916 1.311.81 4.058-6.809 3.448-9.563-.355-1.603-.228-1.961.389-1.097 1.839 2.575 4.531-12.594 5.019-28.282.257-8.25.92-15.562 1.475-16.25.631-.782 3.594-1.25 7.911-1.25 6.593 0 6.952-.123 8.017-2.75.613-1.513 1.142-4.183 1.176-5.935.033-1.752.376-2.99.763-2.752.386.239 1.152-.857 1.702-2.435.551-1.578 1.902-3.715 3.003-4.749 1.955-1.835 2.007-3.298 2.221-62.879.12-33.55.163-70.562.095-82.25L444 0H0v450M451.918 19.25c-.046 10.588-.013 47.6.071 82.25.147 60.328.234 63.086 2.047 65.027 1.042 1.115 2.659 4.397 3.595 7.292 1.168 3.619 1.97 4.861 2.565 3.973.527-.788.614-.213.223 1.471-1.013 4.356.914 5.737 8.003 5.737 3.472 0 6.704.526 7.378 1.2.749.749 1.216 4.6 1.244 10.25.058 12.043 2.553 30.917 3.971 30.041.439-.272.584.326.322 1.327-.449 1.717 6.299 20.182 7.375 20.182.276 0 .234-.698-.094-1.552-.354-.923-.178-1.294.434-.916.566.35.796 1.386.512 2.302-.627 2.015.876 4.664 2.65 4.671.707.002 1.29.902 1.295 2 .014 2.878 2.401 6.669 3.696 5.868.686-.424.819-.222.352.536-.921 1.489 2.299 5.298 3.731 4.413.562-.347.745-.185.408.361-.866 1.402 2.215 5.49 3.527 4.679.624-.385.8-.209.415.414-.675 1.093 1.003 2.68 2.862 2.709.55.008 1 .63 1 1.382 0 2.372 8.748 9.179 10.996 8.557 1.38-.382 1.6-.274.707.349-1.045.728-1.005 1.146.206 2.151.827.687 2.043.915 2.702.508.738-.457.936-.317.516.363-.846 1.368 2.992 3.558 4.548 2.597.679-.42.859-.256.448.41-1.037 1.677 15.719 9.52 18.604 8.707 1.525-.429 1.839-.338.956.276-.988.687-.564 1.229 1.689 2.162 1.654.685 3.554.908 4.222.495.726-.449.957-.333.573.287-.821 1.33 4.815 3.709 6.427 2.713.686-.424.957-.333.622.208-.788 1.276 11.851 6.736 13.391 5.784.716-.442.941-.321.558.299-.828 1.339 9.803 5.714 11.434 4.706.721-.446.951-.329.569.289-.381.616 5.292 3.593 13.951 7.323 14.795 6.373 22.985 11.029 29.564 16.805 1.999 1.755 3.827 2.843 4.062 2.418.235-.426.303-.244.151.403-.308 1.309 1.994 3.6 2.804 2.79.283-.283 1.142.257 1.907 1.201.922 1.135.97 1.462.143.965-1.902-1.143-1.531-.15 1.775 4.749 7.954 11.786 11.242 23.67 11.376 41.118l.099 13-78 .509-78 .509 78.688.241c74.16.227 78.691.342 78.739 1.991.093 3.232 1.973 14.696 3.402 20.75 2.509 10.631 5.851 23.906 6.904 27.428.564 1.885 2.082 8.41 3.375 14.5 3.761 17.724 5.934 27.144 9.704 42.072 1.944 7.7 4.943 20.3 6.663 28 1.72 7.7 4.209 18.275 5.532 23.5 4.85 19.161 6.625 26.714 8.577 36.5 1.097 5.5 3.108 13.825 4.468 18.5 1.36 4.675 2.468 9.483 2.461 10.685-.007 1.202.476 3.452 1.073 5s1.47 4.84 1.94 7.315c1.71 9.007 8.643 36.626 13.08 52.108 1.042 3.634 1.903 8.359 1.914 10.5.011 2.141 1.173 8.167 2.583 13.392 1.409 5.225 2.923 11.75 3.363 14.5.44 2.75 1.555 7.475 2.476 10.5.921 3.025 2.282 8.65 3.023 12.5 1.486 7.724 4.659 21.209 7.529 32 1.024 3.85 3.267 13.3 4.984 21 1.718 7.7 3.741 16.25 4.495 19s2.112 8.375 3.018 12.5c2.649 12.06 3.636 16.221 4.981 21 .697 2.475 1.798 6.975 2.447 10 1.3 6.059 3.87 17.414 5.263 23.25l.895 3.75H900V0H452l-.082 19.25m.792 18.5c-.318 3.712-.209 8.55.241 10.75.639 3.121.844 1.639.934-6.75.063-5.913-.045-10.75-.241-10.75s-.617 3.038-.934 6.75m-10.871 11c-.187 3.163-.087 9.8.222 14.75.504 8.091.58 7.51.75-5.75.19-14.817-.34-19.725-.972-9M400 89.566c0 1.573 2.243 4.434 3.476 4.434 2.347 0 2.946-2.219.986-3.652-1.867-1.365-4.462-1.82-4.462-.782m461.555 8.262c-.9 2.835.383 5.035 1.633 2.8.552-.985.544-2.285-.019-3.291-.825-1.474-1.008-1.418-1.614.491M623.023 331.587c3.012 1.973 6.406 4.448 7.541 5.5 1.136 1.052 2.434 1.913 2.886 1.913 1.015 0-5.66-5.962-6.7-5.984-.413-.009-.75-.643-.75-1.409 0-1.563-2.694-2.914-4.09-2.051-.501.309-.91.085-.91-.497s-.777-1.059-1.727-1.059c-.95 0 .737 1.614 3.75 3.587M811 375c0 2.325 1.263 2.593 2.903.617.889-1.071.785-1.523-.459-2-2.323-.892-2.444-.823-2.444 1.383m-531.25 32.75c21.588.15 56.913.15 78.5 0 21.588-.151 3.925-.274-39.25-.274s-60.837.123-39.25.274m-72.254 112.257c-.76 1.229 1.992 2.427 3.472 1.513.586-.362.806-1.077.489-1.589-.763-1.235-3.18-1.189-3.961.076"/></svg>